<svg xmlns="http://www.w3.org/2000/svg" viewBox="0 0 64 64" width="64" height="64" role="img" aria-label="Work-A-Beez logo">
  <ellipse cx="20" cy="30" rx="9" ry="15" fill="#ffffff" fill-opacity="0.85" stroke="#e5e7eb" stroke-width="1" transform="rotate(-15 20 30)"/>
  <ellipse cx="44" cy="30" rx="9" ry="15" fill="#ffffff" fill-opacity="0.85" stroke="#e5e7eb" stroke-width="1" transform="rotate(15 44 30)"/>

  <ellipse cx="32" cy="42" rx="17" ry="14" fill="#FFC107" stroke="#1a1a1a" stroke-width="2.5"/>
  <clipPath id="bodyClip">
    <ellipse cx="32" cy="42" rx="17" ry="14"/>
  </clipPath>
  <g clip-path="url(#bodyClip)">
    <rect x="14" y="34" width="36" height="6" fill="#1a1a1a"/>
    <rect x="14" y="46" width="36" height="6" fill="#1a1a1a"/>
  </g>

  <circle cx="32" cy="23" r="10" fill="#1a1a1a"/>

  <path d="M26 15 Q22 6 17 4" stroke="#1a1a1a" stroke-width="2" fill="none" stroke-linecap="round"/>
  <circle cx="17" cy="4" r="2" fill="#1a1a1a"/>
  <path d="M38 15 Q42 6 47 4" stroke="#1a1a1a" stroke-width="2" fill="none" stroke-linecap="round"/>
  <circle cx="47" cy="4" r="2" fill="#1a1a1a"/>

  <ellipse cx="32" cy="17" rx="14" ry="3.2" fill="#FF6F00" stroke="#1a1a1a" stroke-width="1.2"/>
  <path d="M20 17 A12 12 0 0 1 44 17 Z" fill="#FF6F00" stroke="#1a1a1a" stroke-width="1.2" stroke-linejoin="round"/>
  <circle cx="32" cy="8" r="1.6" fill="#1a1a1a"/>

  <circle cx="27.5" cy="25" r="2.4" fill="#ffffff"/>
  <circle cx="27.5" cy="25" r="1.1" fill="#000000"/>
  <circle cx="36.5" cy="25" r="2.4" fill="#ffffff"/>
  <circle cx="36.5" cy="25" r="1.1" fill="#000000"/>
</svg>
